PathFileType	4	(X/Y/Z)	C:\Users\Basilio\Documents\Thesis Gigler\squatting_fais\c3dfiles\044\SLS_back_pre3\markers_experimental.trc
DataRate	CameraRate	NumFrames	NumMarkers	Units	OrigDataRate	OrigDataStartFrame	OrigNumFrames
200.000000	200.000000	4	61	mm	200.000000	878	1405
Frame#	Time	FHD			LBHD			RBHD			C7			T10			LSHO			LUUPA			LMUPA			LDUPA			LLEP			LMEP			LUL			LRFIN			RSHO			RUPA1			RMUPA			RDUPA			RLEP			RMEP			RUL			LASI			RASI			USACR			LSACR			RSACR			LTHI1			LTHI2			LTHI3			LTHI4			LLFC			LMFC			LTIB1			LTIB2			LTIB3			LTIB4			LLMAL			LMMAL			LHEE			LMT1			LMT2			LMT5			RTHI			RTHI2			RTHI3			RTHI4			RLFC			RMFC			RTIB1			RTIB2			RTIB3			RTIB4			RLMAL			RHEE			RMT1			RMT2			RMT5			RMMAL			RUFIN			LRAD			*59			*60			
		X1	Y1	Z1	X2	Y2	Z2	X3	Y3	Z3	X4	Y4	Z4	X5	Y5	Z5	X6	Y6	Z6	X7	Y7	Z7	X8	Y8	Z8	X9	Y9	Z9	X10	Y10	Z10	X11	Y11	Z11	X12	Y12	Z12	X13	Y13	Z13	X14	Y14	Z14	X15	Y15	Z15	X16	Y16	Z16	X17	Y17	Z17	X18	Y18	Z18	X19	Y19	Z19	X20	Y20	Z20	X21	Y21	Z21	X22	Y22	Z22	X23	Y23	Z23	X24	Y24	Z24	X25	Y25	Z25	X26	Y26	Z26	X27	Y27	Z27	X28	Y28	Z28	X29	Y29	Z29	X30	Y30	Z30	X31	Y31	Z31	X32	Y32	Z32	X33	Y33	Z33	X34	Y34	Z34	X35	Y35	Z35	X36	Y36	Z36	X37	Y37	Z37	X38	Y38	Z38	X39	Y39	Z39	X40	Y40	Z40	X41	Y41	Z41	X42	Y42	Z42	X43	Y43	Z43	X44	Y44	Z44	X45	Y45	Z45	X46	Y46	Z46	X47	Y47	Z47	X48	Y48	Z48	X49	Y49	Z49	X50	Y50	Z50	X51	Y51	Z51	X52	Y52	Z52	X53	Y53	Z53	X54	Y54	Z54	X55	Y55	Z55	X56	Y56	Z56	X57	Y57	Z57	X58	Y58	Z58	X59	Y59	Z59	X60	Y60	Z60	X61	Y61	Z61	

879	4.39	-100.0584335327149	1586.590087890625	-1029.174682617188	-230.773666381836	1547.782836914063	-1109.919921875	-278.0146179199219	1531.408325195313	-951.533874511719	-294.0746459960938	1379.04931640625	-1037.491088867188	-390.1335449218751	1103.927734375	-1005.86865234375	-198.3215332031251	1383.381225585938	-1173.721069335938	-42.25367736816407	1369.289428710938	-1280.416259765625	-12.79190731048584	1381.218139648438	-1240.887939453125	25.79376792907716	1369.189208984375	-1285.257202148438	85.77866363525392	1372.843505859375	-1277.5791015625	83.20852661132814	1296.142822265625	-1266.684814453125	336.7377624511719	1404.188842773438	-1142.2685546875	332.6555480957032	1420.1064453125	-1039.181396484375	-214.7640533447266	1381.509399414063	-883.2563476562502	-68.72463226318361	1372.197265625	-777.003845214844	-39.03314590454102	1384.982055664063	-816.3620605468752	0.6265464425086976	1373.722290039063	-771.5886840820315	61.64524078369142	1378.717529296875	-779.2578735351565	63.25020980834962	1297.888549804688	-787.2424316406252	323.1249694824219	1402.5576171875	-885.7434692382815	-310.5426635742188	872.0770263671877	-1100.275146484375	-307.7558898925782	846.5617675781252	-885.821716308594	-447.936981201172	968.2603149414065	-977.4495849609377	-468.7025146484376	942.6237792968752	-1004.863403320313	-460.5098266601564	939.6295166015627	-948.6735839843752	-323.4272155761719	688.5272827148439	-1181.665161132813	-247.8853607177735	649.4757080078126	-1183.372802734375	-211.8826446533204	678.4854125976564	-1174.887451171875	-236.3694763183594	590.2030639648439	-1171.130249023438	-139.2342071533203	473.6775512695314	-1144.960571289063	-135.1048126220703	482.1719360351564	-1027.728515625	-164.3106689453125	315.1397094726563	-1042.166870117188	-205.9757080078126	269.9347839355469	-1105.340698242188	-177.1426086425782	262.4984741210938	-1066.25	-225.7207946777344	206.6753997802735	-1025.751586914063	-320.5505065917969	112.4222412109375	-1063.619018554688	-297.4093933105469	130.6128692626953	-978.0398559570315	-387.568572998047	96.09866333007815	-1010.819091796875	-180.7119445800782	59.22402572631837	-985.0833740234377	-179.3078918457032	60.31337356567384	-1031.934204101563	-215.8321990966797	44.59978866577149	-1077.70263671875	-379.6341247558594	591.4157714843751	-806.3418579101565	-325.2416381835938	548.9400634765626	-801.8186035156252	-294.2105407714844	558.4589843750001	-809.5192871093752	-330.9212646484376	465.3161010742189	-818.5612792968752	-339.1078491210938	389.9382934570314	-843.106628417969	-335.8548278808594	384.7462463378907	-958.6520996093752	-428.8716430664064	303.3802185058594	-880.6277465820315	-523.2198486328126	357.6571044921876	-858.7781982421877	-515.1883544921876	312.9426574707032	-869.1165771484377	-555.8285522460939	287.4830017089844	-901.4768676757815	-718.0549926757814	313.5732116699219	-920.9876098632815	-754.4345092773439	354.9166870117188	-984.9427490234377	-732.2589111328126	145.1677856445313	-972.8806152343752	-740.2216186523439	142.1925201416016	-936.5716552734377	-777.2796630859377	181.5286560058594	-896.8725585937502	-692.9129638671876	285.2329711914063	-998.5681762695315	323.9984741210938	1390.122680664063	-1000.708435058594	320.9546508789063	1355.987060546875	-1094.116943359375	nan	nan	nan	nan	nan	nan	
880	4.395	-100.5530166625977	1587.9267578125	-1029.191528320313	-230.7138977050782	1548.77294921875	-1109.802734375	-278.2105102539063	1532.551147460938	-951.4539794921877	-294.2712402343751	1379.874389648438	-1037.365112304688	-390.1929931640626	1104.690307617188	-1005.725891113281	-198.2889709472657	1384.371459960938	-1173.717529296875	-42.39325714111329	1370.139038085938	-1280.23095703125	-12.9002914428711	1382.38037109375	-1240.783813476563	25.66837692260743	1369.962036132813	-1285.252563476563	85.64522552490236	1373.826293945313	-1277.624633789063	83.0936737060547	1296.86865234375	-1266.614990234375	336.9104919433594	1404.99658203125	-1142.329711914063	332.5445251464844	1420.9482421875	-1039.095458984375	-215.1562194824219	1382.867919921875	-883.2224731445315	-68.67192840576173	1373.3583984375	-776.948425292969	-38.84145736694337	1385.526123046875	-815.9231567382815	0.5627645850181581	1374.58154296875	-771.5078735351565	61.52348709106447	1379.539428710938	-779.0674438476565	63.1891441345215	1298.689453125	-786.9676513671877	322.8950805664063	1403.923461914063	-885.9500122070315	-310.3065185546876	873.1722412109377	-1100.254760742188	-307.3876953125001	847.6406860351565	-885.8897705078127	-447.4999084472657	968.869323730469	-977.3256835937502	-468.5719299316407	943.3735351562502	-1004.780395507813	-460.4207763671876	940.4239501953127	-948.5161132812502	-323.5315551757813	689.6459960937501	-1181.5048828125	-248.0867309570313	650.1640014648439	-1183.305053710938	-211.8647766113282	679.0466918945314	-1174.88037109375	-236.7841949462891	590.9851684570314	-1171.040283203125	-139.5688171386719	473.9936523437501	-1145.020874023438	-135.2955474853516	482.2797851562501	-1027.906860351563	-164.7216186523438	315.4611511230469	-1042.16455078125	-206.3121032714844	270.2085266113282	-1105.360595703125	-177.284408569336	262.6592712402344	-1066.459594726563	-225.7962493896485	206.7348937988282	-1025.889038085938	-320.6083068847657	112.4496536254883	-1063.697143554688	-297.4068603515626	130.597885131836	-978.109069824219	-387.6480712890626	96.1855392456055	-1010.804016113281	-180.7289276123047	59.32852172851564	-985.1069335937502	-179.3042755126953	60.23624801635744	-1031.96923828125	-215.9176635742188	44.38745498657227	-1077.709594726563	-379.5891418457032	592.2810668945314	-806.059020996094	-324.9613037109376	549.6981201171876	-801.5813598632815	-294.2152404785157	559.2196655273439	-809.2802734375002	-330.9154663085938	466.6421813964845	-818.8686523437502	-339.0883789062501	390.9075622558595	-842.9932250976565	-335.9256896972657	385.9317016601564	-958.766540527344	-428.7358703613282	304.1563110351563	-880.492370605469	-522.8111572265626	358.3835144042969	-858.4795532226565	-515.0750732421876	314.0084533691407	-869.0720825195315	-555.5671386718751	288.2214660644532	-901.219177246094	-717.7524414062501	314.3305664062501	-920.6345214843752	-754.2627563476564	355.8556213378907	-984.7399902343752	-732.3106079101564	146.0742797851563	-972.403259277344	-739.9224243164064	142.7576751708985	-936.113220214844	-777.1710205078127	182.2241821289063	-896.3772583007815	-692.7006835937501	285.4360046386719	-998.391540527344	323.8550720214844	1390.963500976563	-1000.655822753906	320.8958740234376	1356.81103515625	-1094.079345703125	nan	nan	nan	nan	nan	nan	
881	4.4	-100.3572082519532	1588.803466796875	-1029.199951171875	-231.7582397460938	1549.13916015625	-1109.7783203125	-278.1538696289063	1533.619506835938	-951.4611816406252	-293.8655090332032	1380.561889648438	-1037.013061523438	-390.1054687500001	1105.7177734375	-1005.577270507813	-198.1024017333985	1385.638916015625	-1173.62548828125	-42.55518341064454	1371.206176757813	-1280.16357421875	-12.72581386566162	1382.951171875	-1240.845825195313	25.56505775451661	1370.841674804688	-1285.218872070313	85.58419036865236	1374.669677734375	-1277.609619140625	83.0567092895508	1298.074951171875	-1266.65185546875	336.5358886718751	1405.993896484375	-1142.167724609375	332.5936584472657	1422.375610351563	-1039.341796875	-215.1957092285157	1383.749633789063	-883.1564941406252	-68.76604461669923	1374.18896484375	-776.9653320312502	-38.83746719360352	1386.623779296875	-815.8830566406252	0.4052795469760896	1375.819458007813	-771.6181640625002	61.62785720825197	1380.470336914063	-779.0523681640627	63.17694091796876	1299.42822265625	-786.6114501953127	322.9255065917969	1404.468017578125	-885.6429443359377	-310.1679687500001	873.9042968750002	-1100.202270507813	-307.2200622558594	848.260925292969	-885.660339355469	-447.4798583984376	969.9420166015627	-977.1472167968752	-468.8692932128907	944.749694824219	-1004.469116210938	-460.4703369140626	941.1417236328127	-948.2485961914065	-323.5598449707032	690.3770751953126	-1181.651000976563	-248.3222045898438	650.8549804687501	-1183.30810546875	-212.0010681152344	679.3992309570314	-1174.853393554688	-236.6253051757813	591.5628662109376	-1171.756225585938	-139.6927642822266	474.0974121093751	-1145.048828125	-135.8870391845703	482.6487731933595	-1027.866943359375	-164.9217071533203	315.6964416503907	-1042.328735351563	-206.5477600097657	270.4319763183594	-1105.47509765625	-177.4933319091797	262.8365783691407	-1066.569091796875	-225.9838409423829	206.9127960205079	-1026.030395507813	-320.6618652343751	112.4040451049805	-1063.751220703125	-297.4873962402344	130.7107086181641	-978.299987792969	-387.655975341797	96.20264434814456	-1010.875549316406	-180.6488342285157	59.26510238647462	-984.8367309570315	-179.33056640625	60.17518997192384	-1032.043334960938	-215.904525756836	44.39738082885743	-1077.809936523438	-379.3164672851563	593.4217529296876	-806.156921386719	-324.8648681640626	550.9963989257814	-801.677185058594	-293.8135986328126	560.1862792968751	-809.402282714844	-330.5166931152344	467.1221618652345	-818.3399047851565	-338.8529052734376	391.5383605957032	-842.6521606445315	-335.7669982910157	386.3203430175782	-958.208923339844	-428.1975097656251	305.1599121093751	-880.5865478515627	-522.6467285156251	359.2424316406251	-858.3562011718752	-514.5739746093751	314.5758361816407	-868.8916015625002	-555.3710327148439	289.0734252929688	-900.9787597656252	-717.4622802734376	315.1911315917969	-920.3483886718752	-754.0891723632814	356.4624938964844	-984.4094238281252	-731.8445434570314	146.565414428711	-972.263366699219	-739.7308959960939	143.6403198242188	-935.8139648437502	-776.8118286132815	183.0522613525391	-896.0412597656252	-692.6810302734376	286.2205810546876	-998.0845336914065	324.4206542968751	1390.487426757813	-1000.471557617188	320.9452514648438	1357.843627929688	-1094.02294921875	nan	nan	nan	nan	nan	nan	
882	4.405	-100.3858184814453	1589.683227539063	-1029.086669921875	-231.7966003417969	1550.10791015625	-1109.713500976563	-278.2814636230469	1534.281127929688	-951.2636718750002	-294.3578186035157	1381.803588867188	-1037.224853515625	-389.9472656250001	1106.331665039063	-1005.42236328125	-198.5484008789063	1386.343627929688	-1173.551391601563	-42.51984024047852	1372.242797851563	-1280.144287109375	-12.71035671234131	1383.750122070313	-1240.818603515625	25.43680572509766	1371.847290039063	-1285.154663085938	85.68434906005861	1375.446044921875	-1277.549438476563	83.09044647216798	1299.092529296875	-1266.533447265625	336.6240234375001	1406.756591796875	-1142.07421875	332.4389343261719	1422.52197265625	-1038.982177734375	-214.9742736816407	1384.373657226563	-882.9365844726565	-68.78728485107423	1375.237426757813	-776.695495605469	-38.99015808105469	1387.681518554688	-815.8742675781252	0.5106489062309266	1376.692626953125	-771.4158325195315	61.53532791137697	1381.543334960938	-779.0708618164065	62.92958450317384	1300.634399414063	-787.751892089844	322.9899902343751	1405.24365234375	-885.6601562500002	-309.9945678710938	874.806091308594	-1100.158325195313	-307.0813598632813	849.4172973632815	-885.6070556640627	-447.3233337402345	970.8038330078127	-977.0928344726565	-468.2829589843751	945.3911743164065	-1004.413696289063	-460.0678710937501	942.0964965820315	-948.2359008789065	-323.7782592773438	690.7767333984376	-1181.519287109375	-248.3897094726563	651.4730224609376	-1183.31396484375	-212.9509887695313	680.2529907226564	-1174.721923828125	-237.1520233154297	592.0072021484376	-1171.00927734375	-140.2292633056641	474.4219360351564	-1145.125244140625	-136.1966705322266	482.9684143066407	-1027.775512695313	-165.0759429931641	315.8980407714844	-1042.402954101563	-206.8541717529297	270.6757202148438	-1105.611083984375	-177.7003173828125	263.0131225585938	-1066.652587890625	-226.3618774414063	206.980209350586	-1026.129150390625	-320.6665649414063	112.3911743164063	-1063.803955078125	-297.5028686523438	130.6620178222657	-978.4710083007815	-387.5815429687501	96.12980651855472	-1010.894470214844	-180.6763610839844	59.46073150634767	-984.8589477539065	-179.3214416503907	60.2020721435547	-1032.078002929688	-215.8455810546876	44.48381042480469	-1077.8857421875	-378.8752136230469	594.1652221679689	-806.0504150390627	-324.5565490722657	551.6959838867189	-801.331237792969	-293.6999511718751	561.0372314453126	-809.2291259765627	-330.5713806152344	468.1899414062501	-818.5894165039065	-338.6268615722657	392.549530029297	-842.5985107421877	-335.4748840332032	387.4205627441407	-958.333435058594	-428.1491699218751	305.7889099121094	-880.2125244140627	-522.3254394531251	360.0405578613282	-858.2310791015627	-514.4173583984376	315.5286254882813	-868.5753173828127	-555.1088867187501	289.9676208496094	-900.6994628906252	-717.4315795898439	316.0393676757813	-919.8365478515627	-753.8346557617189	357.2376708984376	-984.059509277344	-731.8052978515626	147.7259826660157	-971.8667602539065	-739.5147094726564	144.4570617675782	-935.3029785156252	-776.5628051757815	184.0267486572266	-895.6363525390627	-692.6353149414064	286.9907531738282	-997.7022705078127	324.1388244628907	1391.716186523438	-1000.421142578125	320.8412170410157	1358.704223632813	-1093.991821289063	nan	nan	nan	nan	nan	nan	
